<svg xmlns="http://www.w3.org/2000/svg" viewBox="0 0 24 24" id="Astronomy-Moon-Star--Streamline-Freehand.svg" height="24" width="24"><desc>Astronomy Moon Star Streamline Icon: https://streamlinehq.com</desc><g><path d="M24 7.11a0.32 0.32 0 1 0 -0.63 0 13.61 13.61 0 0 1 -0.29 3.48 4.94 4.94 0 0 1 -1 2 8.08 8.08 0 0 1 -1.68 1.57 7.14 7.14 0 0 1 -2.05 1 9.1 9.1 0 0 1 -1.9 0.33 6.21 6.21 0 0 1 -1.88 -0.12 6.41 6.41 0 0 1 -3.38 -2.1A6.8 6.8 0 0 1 9.5 9.62a7.09 7.09 0 0 1 0.28 -2.8A11.11 11.11 0 0 1 11 4.18 7.87 7.87 0 0 1 14.28 1a3.53 3.53 0 0 1 2.23 -0.16 2.68 2.68 0 0 0 -1.79 0.81A6.12 6.12 0 0 0 13.07 5a6 6 0 0 0 0.1 2.31 4.58 4.58 0 0 0 1.18 2.08 5.21 5.21 0 0 0 3.27 1.37A5.72 5.72 0 0 0 21 9.94a5.51 5.51 0 0 0 1.15 -1 5.17 5.17 0 0 0 0.79 -1.26 0.32 0.32 0 1 0 -0.57 -0.28 4.65 4.65 0 0 1 -0.75 1.07 4.74 4.74 0 0 1 -1 0.78 5 5 0 0 1 -2.9 0.51 4.25 4.25 0 0 1 -2.6 -1.17A3.67 3.67 0 0 1 14.19 7 5.15 5.15 0 0 1 14 5.09a5.24 5.24 0 0 1 1.2 -2.94 2 2 0 0 1 1.8 -0.71 0.3 0.3 0 0 0 0.33 -0.23 0.32 0.32 0 0 0 0 -0.14 0.26 0.26 0 0 0 0.22 -0.14 0.28 0.28 0 0 0 -0.13 -0.38A4.11 4.11 0 0 0 14 0.42a8.66 8.66 0 0 0 -3.77 3.3 11.76 11.76 0 0 0 -1.36 2.82 8.18 8.18 0 0 0 -0.4 3.19 7.76 7.76 0 0 0 1.93 4.21 7.39 7.39 0 0 0 4 2.41 7.49 7.49 0 0 0 2.17 0.09 11.06 11.06 0 0 0 2.06 -0.44 7.56 7.56 0 0 0 2.28 -1.16 9.25 9.25 0 0 0 1.81 -1.78 5.89 5.89 0 0 0 1 -2.31A14.08 14.08 0 0 0 24 7.11Z" fill="#100259" fill-rule="evenodd" stroke-width="1"></path><path d="M11.51 19.28a3.75 3.75 0 0 0 -1.18 0 0.28 0.28 0 1 0 -0.05 0.55 5.94 5.94 0 0 1 0.77 0.35l0.17 0.07 -0.13 0.14 -0.54 0.27a0.31 0.31 0 0 0 -0.24 0.38c0.09 0.39 -0.06 0.09 -0.14 0.38l-0.44 0.87 -0.25 0.43c-0.08 -0.18 -0.13 -0.47 -0.18 -0.56l-0.3 -0.39 -0.26 -0.53a0.26 0.26 0 0 0 -0.29 -0.18l-0.63 -0.3c-0.3 -0.25 -0.79 0.07 0.6 -0.87 0.3 -0.13 -0.1 0 0.36 -1.43l0.3 -0.46c0 -0.05 0.08 -0.18 0.13 -0.28a1.38 1.38 0 0 1 0.22 0.35c0.16 0.33 0.28 0.7 0.4 1a0.31 0.31 0 0 0 0.39 0.22 0.32 0.32 0 0 0 0.22 -0.39 11.19 11.19 0 0 0 -0.22 -1.31 2 2 0 0 0 -0.32 -0.64 0.8 0.8 0 0 0 -1.12 -0.21 1.9 1.9 0 0 0 -0.61 0.88l-0.17 0.61 0 1a0.23 0.23 0 0 0 0.06 0.2 3.86 3.86 0 0 0 -0.9 0.31 1.25 1.25 0 0 0 -0.49 0.44 0.82 0.82 0 0 0 0.33 1.2l0.55 0.21 0.73 0.09 0.06 0.33 0.11 0.48a5.42 5.42 0 0 0 0.21 0.81 1.07 1.07 0 0 0 0.41 0.47 0.78 0.78 0 0 0 1.07 -0.26l0.21 -0.35 0.19 -0.6 0.24 -1a0.31 0.31 0 0 0 -0.13 -0.33l0.77 -0.12 0.48 -0.23c0.63 -0.49 0.49 -1 0.16 -1.3a1.38 1.38 0 0 0 -0.55 -0.3Z" fill="#100259" fill-rule="evenodd" stroke-width="1"></path><path d="M4.1 10.46a0.32 0.32 0 0 0 -0.37 0.25l-0.34 1 -0.17 0.3 -0.14 0.16c-0.05 -0.11 -0.1 -0.28 -0.14 -0.38 -0.13 -0.3 -0.26 -0.59 -0.3 -0.71l-0.12 -0.33 -0.26 -0.65a0.28 0.28 0 0 0 -0.35 -0.18 0.27 0.27 0 0 0 -0.17 0.36l0.08 0.63 0 0.34a5.41 5.41 0 0 0 0.18 1 1.7 1.7 0 0 0 0.48 0.77c0.36 0.31 0.85 0.42 1.33 -0.24l0.21 -0.38 0.18 -0.4 0.16 -1.17a0.32 0.32 0 0 0 -0.26 -0.37Z" fill="#100259" fill-rule="evenodd" stroke-width="1"></path><path d="M5.56 8.38a3.72 3.72 0 0 0 -0.92 -0.21 5.43 5.43 0 0 0 -0.28 -1 7.17 7.17 0 0 0 -0.5 -1 2.08 2.08 0 0 0 -0.58 -0.58 0.78 0.78 0 0 0 -0.71 -0.06 1.05 1.05 0 0 0 -0.51 0.49 4.39 4.39 0 0 0 -0.24 0.98l-0.25 1.08 0 0.09a3.36 3.36 0 0 0 -0.71 0.18A1.4 1.4 0 0 0 0.1 9a0.86 0.86 0 0 0 0.5 1.22 1.45 1.45 0 0 0 0.26 0.11 2.22 2.22 0 0 0 0.37 0.09 0.32 0.32 0 1 0 0.18 -0.61l-0.33 -0.24c-0.14 -0.15 0 -0.15 0.17 -0.25 0.37 -0.27 0.81 -0.57 1 -0.74 0.39 -0.22 -0.24 -0.17 0.33 -1.25 0.07 -0.12 0.16 -0.36 0.28 -0.59a0.47 0.47 0 0 1 0 -0.1c0.05 0.07 0.1 0.18 0.12 0.2a5.77 5.77 0 0 1 0.59 0.76c0.56 0.89 0.16 0.89 0.47 1s0.48 0.28 0.76 0.45a1.47 1.47 0 0 1 0.36 0.27 0.41 0.41 0 0 1 -0.15 0.19 2 2 0 0 1 -0.44 0.2l-0.25 0a0.31 0.31 0 0 0 -0.33 0.3 0.3 0.3 0 0 0 0.3 0.33l0.39 0a2.32 2.32 0 0 0 0.84 -0.14 1.44 1.44 0 0 0 0.55 -0.45 1 1 0 0 0 0.19 -0.5 0.83 0.83 0 0 0 -0.14 -0.51 1.46 1.46 0 0 0 -0.56 -0.36Z" fill="#100259" fill-rule="evenodd" stroke-width="1"></path></g></svg>