<svg xmlns="http://www.w3.org/2000/svg" viewBox="0 0 200 200" id="Online-Test-2--Streamline-Milano"><desc>ONLINE TEST 2 Streamline Illustration: https://streamlinehq.com</desc><g fill="currentColor"><path d="M83.17 63.7c-1.62 -0.21 -16 -0.21 -18.58 0a0.18 0.18 0 0 0 -0.14 0.2 0.2 0.2 0 0 0 0.14 0.14c2.32 0.2 16.93 0.29 18.53 0.08 0.23 -0.02 0.3 -0.39 0.05 -0.42zm67.55 25.02c-0.2 0 -2.77 0.91 -2.09 1.28l0.72 0.6c-0.16 0.36 1.41 2 0.33 5.86 -0.45 -0.31 -0.46 0 -0.4 0.1 1.67 1.72 13.6 11.27 16.26 13 0.24 0.35 1.76 -0.4 2 -0.48a159.08 159.08 0 0 0 15.45 -7.6c1.83 -1 1.81 -4.59 -0.41 -6a66.15 66.15 0 0 0 -7.28 -4.2l3.1 -2.43c0.22 -0.17 0.1 -0.8 -0.74 -0.12a14.76 14.76 0 0 1 -2.07 -9.79c0.12 -0.07 1.46 -0.87 0.87 -1.13 -3 -1.25 -12.94 -4.9 -16 -5.09 -1 -0.07 -9 6.33 -9.75 7.62 -1.6 2.67 -1.11 5.72 0.06 8.41zm-0.8 7.89c1 -1.09 0.69 -4.08 0.21 -5.4 1.37 1.1 12.38 9.4 15.88 11.62 1.89 4 -0.22 5.94 -0.15 6.24 -5.86 -4.07 -10.63 -8.72 -15.94 -12.46zm32.59 -0.45c1.67 0.86 1.29 4.44 0.09 4.86 -5.44 2.91 -10.82 5.53 -16.44 8a5.85 5.85 0 0 0 1.15 -3.44l7.7 -3.16c0.14 -0.07 0 -0.26 -0.11 -0.23a68.19 68.19 0 0 0 -7.58 3.05 5 5 0 0 0 -0.87 -2.72c2.35 -0.93 14.36 -7.16 16.06 -6.36zM165.84 86a100.81 100.81 0 0 1 9.22 -6.79 12 12 0 0 0 -0.13 3.69c-0.49 0.16 -6.55 4.6 -6.86 4.84 -0.13 0.1 0 0.31 0.16 0.23l6.77 -4.6c0.21 1.41 1.06 4.62 2.37 5.49 -1.33 1.08 -7.91 6.29 -9.51 6.29a8.44 8.44 0 0 1 -2 -9.15zm-1.31 -8.63c0.7 0.6 -2.2 2.29 -2.31 2.32 -0.33 0.1 -0.55 -0.24 0.16 -0.92 0.36 -0.31 1.68 -1.77 2.15 -1.39zm-5.45 1.67c0.5 -1 2.58 -2.66 3.46 -3.26a0.4 0.4 0 0 1 0.46 0.66c-0.78 0.6 -2.9 2.59 -3.49 3a0.3 0.3 0 0 1 -0.29 0 0.29 0.29 0 0 1 -0.14 -0.39zm-7.34 1.73a108.75 108.75 0 0 1 12.62 4.27c0.26 0.13 0.17 0.57 -0.14 0.51a110.42 110.42 0 0 1 -12.61 -4.35 0.23 0.23 0 0 1 0.13 -0.43zM151 89.2c4.77 2.69 13.65 6.11 17 6.61 0.67 0.1 6.11 -3.72 7 -4.37 0.58 0.57 5.41 3.3 6.64 4.06 -1.78 0.09 -14.7 6.11 -15.63 6.7 -5.55 -4.15 -11.31 -8.36 -17 -12.31l2 -0.69zM83.17 63.7h0.01zm16.24 -19.06a0.25 0.25 0 0 0 -0.19 0c-0.59 0.36 -4 5 -4.69 5.87 -0.66 -0.9 -1.33 -1.79 -2 -2.66 -0.13 -0.16 -0.4 0 -0.3 0.21 0.67 1.07 1.39 2.1 2.12 3.13 0.12 0.16 0.35 0.08 0.45 -0.05 0.63 -0.8 4.64 -5.64 4.81 -6.19a0.26 0.26 0 0 0 -0.2 -0.31zm-19.07 21c-6 0.12 -12.65 0 -15.23 0.22a0.2 0.2 0 0 0 0 0.4c3.1 0 12.75 0.32 15.23 -0.21 0.21 -0.05 0.17 -0.35 0 -0.41zm0.22 -10.05c0.2 0 0.26 -0.34 0 -0.37 -2 -0.3 -14 0.29 -16.91 0.74a0.2 0.2 0 0 0 0 0.4c3.92 0 12.83 -0.61 16.86 -0.75zm-3.98 2c0.17 0 0.26 -0.34 0 -0.4 -1 -0.25 -11 0 -12.51 0.17a0.18 0.18 0 0 0 -0.15 0.21 0.19 0.19 0 0 0 0.15 0.16c1.93 0.11 11.33 0.18 12.51 -0.14zm27.63 59.55zM97.9 63.09c0.55 -0.8 -5.48 -0.51 -5.74 -0.24s0 4.38 0 4.76c0 0.59 5.59 0.58 5.81 0.41a16.2 16.2 0 0 0 0 -4.91zm-0.43 4.48c-0.53 0 -4.46 0.07 -4.78 -0.18 0 -1.41 -0.09 -2.81 -0.14 -4.21h5a21 21 0 0 0 -0.08 4.39z" stroke-width="1"></path><path d="M168.4 90.88c1.4 -0.83 2.83 -1.64 4.18 -2.54 0.19 -0.13 0 -0.47 -0.22 -0.35l-4.11 2.66a0.14 0.14 0 0 0 0.15 0.23zm-10.08 10.98c-0.12 -0.08 -0.28 0.11 -0.16 0.21 1 0.87 5.92 4.31 7 5.07 0.14 0.1 0.26 -0.13 0.13 -0.23 -2.1 -1.6 -4.74 -3.71 -6.97 -5.05zM93.54 59.61c0.52 0 4.59 0.47 4.55 -0.2s-0.1 -4.52 -0.36 -4.64c-0.07 -0.67 -5.14 -0.18 -5.61 -0.09 -0.29 0 -0.17 3.9 -0.15 4.37 0.03 0.68 1.12 0.54 1.57 0.56zM97.47 55v4.21a30.65 30.65 0 0 0 -5.07 -0.1 30.35 30.35 0 0 0 -0.08 -4.11c0.83 0 4.62 0.13 5.15 0zm67.47 50.22a0.14 0.14 0 0 0 0.18 0 0.12 0.12 0 0 0 0 -0.16c-4.58 -3.25 -9.13 -7.16 -13.63 -10.21 -0.13 -0.1 -0.33 0.09 -0.2 0.22 2.52 2.4 10.39 8 13.69 10.2zm12.81 -5.74h0.02zM98.07 48.19a0.18 0.18 0 0 0 -0.22 -0.12 0.18 0.18 0 0 0 -0.13 0.12v3.5h-5.54a46.87 46.87 0 0 0 -0.54 -4.81 32.61 32.61 0 0 0 4.69 -0.12 0.16 0.16 0 0 0 0.11 -0.17 0.16 0.16 0 0 0 -0.08 -0.1c-0.37 -0.12 -5 -0.52 -4.86 0.28 -0.46 0 0.21 5 0.21 5 0.24 0.61 1.25 0.4 1.78 0.4s4.21 0.09 4.51 0c0.48 -0.19 0.21 -3.39 0.1 -4z" stroke-width="1"></path><path d="M194.7 138.91q-19.11 1.17 -38.23 2a29.71 29.71 0 0 0 -1 -5.39q19 -0.5 38 -1.17a0.3 0.3 0 0 0 0.26 -0.25 0.3 0.3 0 0 0 -0.26 -0.33q-19.08 0.71 -38.15 1.17c-3 -10.46 -9.33 -20.41 -16.71 -28.29 -0.23 -2.66 -0.24 -4 -1.38 -6.67 -2.2 -5.05 -4.63 -6.1 -4.57 -4.9a2.92 2.92 0 0 0 0.15 0.93c-0.4 -0.5 -3.34 -3.56 -3.94 -1.91a3.48 3.48 0 0 0 -3 -0.34c-1.87 -3 -5 -3 -7 -4 -3.82 -2 -2.06 -8.38 0.75 -10.76 0 0 12.07 -0.23 12.08 -0.38 0.22 -2.83 2.63 -45.9 2.63 -45.9 -29.74 -0.59 -61.74 0 -91.26 0.6 -0.2 0 -0.37 0.13 -0.35 0.31 1.78 15.15 6.15 46.16 6.15 46.16 0.72 0.29 66.09 -0.73 70 -0.79a9.74 9.74 0 0 0 -2.56 6.69c0.2 6.3 5.21 3.62 9.31 8.23 -2.66 1.14 -3 4.51 -2 6.92a5.3 5.3 0 0 0 0.73 1.29 5.86 5.86 0 0 0 0.78 2.67c1.28 2.43 3.56 3.27 3.68 3.63 0 5.66 1.19 12.56 2.32 18.08 -3.81 -2 -15.11 -6.77 -26.73 -7.11 0.66 -5.73 5.61 -6.45 4.93 -10.28 2.07 -0.08 4.14 -0.16 6.21 -0.26 0.52 0 -0.05 -1.6 -0.11 -1.87q-1.26 -5.55 -2.53 -11.08c-0.13 -0.5 -0.71 -3.86 -1.2 -3.86l-6.45 0.12c-1.42 -1.35 -4.75 -1.85 -6.11 -0.28 -2 -3.85 -8.18 -3.29 -8.38 0.45 -1.69 -1.15 -4.2 -1.38 -5.73 0.18 -0.16 0.07 -30.41 0.48 -34.91 0.66h-0.08a0.22 0.22 0 0 0 -0.07 0.3c0.08 0.52 -2.53 12.86 -2.84 15.83 0 0.42 4.53 0.36 5 0.36 -6.46 7.57 -12.27 16.11 -14 26.1 -10.9 -0.17 -21.8 -0.44 -32.7 -0.4a0.2 0.2 0 0 0 0 0.4c10.85 0.47 21.73 0.52 32.59 0.6a31.64 31.64 0 0 0 -0.4 6c-10.8 -0.22 -21.6 -0.56 -32.39 -0.74 -0.24 0 -0.28 0.38 0 0.38 10.8 0.55 21.62 0.75 32.44 0.91 0.28 5.43 2.42 12.09 7.74 14.53 2.19 4.3 6.83 8.17 12 7.06 -0.15 0.78 -0.29 1.58 -0.44 2.38 -0.06 0.36 0.48 0.51 0.54 0.15 1.47 -7.92 3 -15.88 5.57 -23.52 0.08 -0.24 -0.28 -0.33 -0.37 -0.1 -2.5 6.64 -3.91 13.62 -5.21 20.57 -5.29 0.77 -9.51 -2.6 -11.7 -7.16a20 20 0 0 1 -0.84 -15.59c2.73 -7 10 -12 17.14 -15.42a70.17 70.17 0 0 1 23.05 -6.41c0.57 5.34 6.71 7.15 11.39 6.87s7.45 -1.71 7.85 -6.43c0.06 0 16.89 0.37 31.42 10.08 4.27 2.85 8.15 6.51 10.42 11.16 2.22 4.49 3 10 1 14.68 -2.86 6.82 -8.08 7.81 -11.54 8.42a71.14 71.14 0 0 0 -7 -21c-0.09 -0.17 -0.37 -0.06 -0.28 0.12a87.54 87.54 0 0 1 7.21 24.21c0 0.26 0.52 0.33 0.52 0a15.72 15.72 0 0 0 -0.36 -2.72 14.4 14.4 0 0 0 9.72 -5c8 -2 11.49 -10.65 11 -18.27q19.16 -0.78 38.28 -2c0.35 -0.13 0.22 -0.62 -0.08 -0.62zM48.91 73.47c-2 -12.72 -3.59 -25.38 -5.4 -38.11 30 -0.52 60.78 -0.3 90.37 -0.8l-2.31 37.51c-12.49 0.38 -81.05 0.77 -82.66 1.4zm60.3 35.09a2.61 2.61 0 0 0 -1 -1.31 5.28 5.28 0 0 0 0.81 -2.75h0.54l0.75 4zm-0.84 -7.33a3.41 3.41 0 0 0 0.47 -0.46c0.24 1.07 0.44 2.14 0.64 3.21H109a5.17 5.17 0 0 0 -0.63 -2.75zm6.84 7.07 -4.6 0.2c-0.12 -1.35 -0.38 -2.68 -0.62 -4a36.71 36.71 0 0 0 4.31 -0.11c0.3 1.29 0.61 2.61 0.91 3.91zm-1 -4.37h-4.3l-0.72 -3.75 4.15 -0.12zm-1 -4.3 -3.91 0.12a3.16 3.16 0 0 0 -0.81 -2.65c-0.06 -0.3 -0.12 -0.61 -0.2 -0.92l4.12 -0.09zm-1.53 -7.14c0.22 1 0.42 2.07 0.62 3.11l-4.11 0.07a27.86 27.86 0 0 0 -0.81 -3.11zm-3.78 4.24a2.23 2.23 0 0 0 -1.55 -0.11 2.72 2.72 0 0 0 0.11 -0.38h1.32zm-1 -4.16a28.14 28.14 0 0 0 0.74 3.11h-1.11a4.43 4.43 0 0 0 -0.86 -3.11zM82.69 93h1.93a2.86 2.86 0 0 0 -0.4 2.13l-1.7 0.49c0.08 -0.86 0.17 -1.82 0.17 -2.62zm-0.54 0v2.79a5.25 5.25 0 0 0 -0.49 0.33l-4.73 0.08a21.92 21.92 0 0 0 -0.09 -3.11zm-2.1 7.25H76.9v-3.5l4.1 -0.07a4 4 0 0 0 -0.95 3.57zm-3.13 4.63h2.73a4 4 0 0 0 0.92 2.38 2.33 2.33 0 0 0 -1 2.06h-2.7c0.03 -1.5 0.05 -2.97 0.05 -4.44zm3 -1.21a3 3 0 0 0 -0.19 0.65h-2.76v-3.61h3.23a3.2 3.2 0 0 0 1.12 1.49 3.29 3.29 0 0 0 -1.44 1.47zm-3.35 5.64H64.18c0.13 -1.72 0 -2.8 1.11 -4.28l11.17 -0.13c-0.01 1.47 0.02 2.94 0.07 4.41zm-10.87 -4.83a9.72 9.72 0 0 0 2.3 -3.73h2.5v3.67zm5.44 -11.28 5.24 -0.09a28.64 28.64 0 0 0 0 3.11l-5.27 0.09c0 -1.03 0.01 -2.07 0.03 -3.11zm-0.07 3.66 5.29 -0.09v3.5H71c0 -1.14 0 -2.27 0.07 -3.41zm-0.07 3.88h5.41v3.61l-5.63 0.07c0.08 -1.23 0.14 -2.42 0.22 -3.68zm-5 -7.45 4.79 -0.08 -0.11 3.11 -4.88 0.08a19.67 19.67 0 0 0 0.11 -3.11zm-0.24 3.65 4.91 -0.08 -0.09 3.4h-2.45c0.12 -0.55 0.34 -1.45 -0.31 -1.75s-1.27 1.2 -2.47 1.74c0.11 -1.1 0.21 -2.2 0.32 -3.3zm-4.28 -3.57 4.13 -0.07a30.58 30.58 0 0 0 -0.27 3.11H65c0.43 -1.05 -1.89 -1.73 -3.89 0 0.03 -0.51 0.31 -2.7 0.28 -3.04zM65.21 97c-0.07 1.09 -0.13 2.17 -0.2 3.26h-1.56c-0.3 -0.88 0 -2.95 0.8 -3.26h0.94zm-4.33 -3.6 -0.16 3.1h-1.87c-0.74 -1.54 -0.27 -2.71 -1 -3.08zm-0.4 3.66a4.58 4.58 0 0 0 -0.58 0.94l-0.74 -0.91zm-6.39 -3.53 3.21 -0.06c-1 0.48 -1.15 2.18 -1.15 3.11h-1.51c-0.51 -0.44 -0.73 0 -1.11 0l0.54 -3.11zm2.22 5.08A3.91 3.91 0 0 1 55 97.14h1.13a10.44 10.44 0 0 0 0.14 1.47zm-3.31 1.5 0.48 -2.94a6.89 6.89 0 0 0 0.37 3zm1 0.49c0.41 1.37 1 2.62 1.28 4l-3 0.06 0.6 -4.07zm-3.63 -7.06h3.28c-0.19 1 -0.37 2.08 -0.55 3.13 -1.09 0 -2.19 0.06 -3.28 0.11a27 27 0 0 0 0.51 -3.24zm-0.62 3.65H53c-0.15 1 -0.31 2 -0.47 2.93h-3.35c0.17 -1 0.35 -1.97 0.53 -2.93zm-0.61 3.28c1.1 0.06 2.2 0.09 3.3 0.11 -0.19 1.35 -0.41 2.72 -0.59 4.08 -1.17 0 -2.34 0.08 -3.51 0.13 0.27 -1.44 0.53 -2.88 0.8 -4.32zm2.25 8.67h-3.86c0.25 -1.34 0.51 -2.67 0.78 -4l3.47 0.09a37.88 37.88 0 0 0 -0.43 3.91zm0.28 0 0.59 -4h3.11a3.57 3.57 0 0 1 0 0.8l-2.81 3.21zm-6.81 30.73a20.36 20.36 0 0 0 0.23 16.87c-9.68 -6.54 -7.62 -21 -3.5 -30.24 3.37 -7.57 8.71 -14 14.18 -20.17 0.8 -0.91 -1.79 -7 -1.88 -8.49 -0.06 -1.11 0.4 -1.34 0.81 -0.55s1 1.69 1.81 1.88c0.32 0.94 0.57 0.64 0.53 0.49 -0.34 -1.65 -0.93 -4 0.17 -5.52 0.8 -1.06 0.77 0.89 0.85 1.27 0.19 0.91 1 2.67 1.73 3 -0.25 0.71 0.17 0.46 0.2 0.37 1.42 -3.73 5.76 -3.2 4.36 -2.28A2.81 2.81 0 0 0 63 98.58c-0.51 3.53 2.27 3 4.29 0.54 0.84 -1 0.88 1.15 -0.45 3.32 -1.13 1.84 -2.66 2.5 -2.84 4.91 -0.5 5.89 -1.71 12.92 -2.52 18.1 -6.64 3.21 -13.43 7.55 -16.66 14.43zM62 125.18a142.07 142.07 0 0 0 2.09 -15.38H79.6c0.58 3.35 4.74 3.8 5.41 9A69.35 69.35 0 0 0 62 125.18zm42.22 -8.07a11.16 11.16 0 0 0 -0.48 2.42c-0.4 4.24 -2.2 5.65 -6.91 6 -5 0.41 -10.42 -1.17 -11.18 -6.56 -0.67 -4.8 -2.21 -4.38 -4.68 -7.74 -0.74 -1 -1.4 -2.86 0 -3.64a6.29 6.29 0 0 0 2.51 1.68c2.16 4.85 2.89 10.44 9.17 11.06 12.14 1.13 9.42 -5.48 13.27 -11.25a6.69 6.69 0 0 0 2 -1.42 2.54 2.54 0 0 1 0.65 3.07c-0.98 2.37 -3.34 3.27 -4.35 6.38zM129 94.68c0.34 0.76 0.69 1.51 1 2.27 -0.49 -0.63 -2.89 -3.25 -3.69 -1.85 -0.41 0.73 0.45 1.82 0.8 2.47a5.31 5.31 0 0 0 -3.35 2.08C122.48 95 127 92.68 129 94.68zm-4.52 6.81c-0.19 -0.47 -0.39 -0.95 -0.59 -1.42a6.42 6.42 0 0 1 3.37 -2.07 11.61 11.61 0 0 1 1.08 3.69c0.27 2.56 -1.69 0.73 -2.64 -0.15 -0.37 -0.38 -0.99 -0.54 -1.27 -0.05zm21.65 57.41c3.31 -4.64 3.45 -10.63 1.53 -15.87 -2.72 -7.41 -9.19 -12.6 -16 -16.23a122.44 122.44 0 0 1 -2.54 -18.36c0 -0.94 -3.18 -1.58 -4.17 -5.27 -0.18 -0.67 -0.55 -2.43 0.66 -1.17s3.27 2.42 3.18 -0.34c-0.12 -3.27 -2.34 -5.45 -2.14 -6.19 0.25 -0.93 2.1 0.82 2.4 1.12a21.06 21.06 0 0 1 2.12 2.76c0.11 0.16 0.38 0 0.28 -0.15q-0.35 -0.6 -0.72 -1.2c0.16 -0.34 -1.64 -3.52 -1.32 -3.82s1.76 0.74 2.08 1c1.67 1.45 1.75 2.42 2.32 3.17a0.12 0.12 0 0 0 0.08 0 0.14 0.14 0 0 0 0.15 -0.12c-0.06 -0.64 -0.43 -1 -0.61 -1.44s-0.55 -1.43 -0.3 -1.78c0.12 -0.1 0.81 0.41 0.89 0.49a8.29 8.29 0 0 1 1.63 2.18c3.06 5.23 2.14 8.6 2.66 9.11 7.59 8.55 15.7 21.07 17.34 32.37 1.11 7.84 -1.36 16.98 -9.57 19.74z" stroke-width="1"></path><path d="M73.6 50c0.23 -0.07 0.14 -0.4 -0.07 -0.43 -3.64 0.07 -7.51 0 -11.1 0.1 -0.28 0 -0.24 0.43 0 0.47 1.84 0.3 9.57 0.35 11.17 -0.14zm95.47 53.48c1.36 -0.59 8 -3.27 8.79 -3.72a0.14 0.14 0 0 0 0 -0.21 0.16 0.16 0 0 0 -0.15 -0.07c-1.68 0.35 -7.12 2.94 -8.81 3.78 -0.09 0.07 0.03 0.28 0.17 0.22zM102 80l-21.2 0.32c0.91 10.28 21.47 10.44 21.2 -0.32zm0 -22a0.17 0.17 0 0 0 0.16 0.17c3.39 0.08 10.56 0.29 13.27 -0.08 0.22 0 0.15 -0.37 0 -0.37 -3.83 0 -9.36 0 -13.22 0.11a0.17 0.17 0 0 0 -0.21 0.17zM73 43c0.28 0 0.16 -0.4 -0.07 -0.44 -6.89 0.2 -14.39 0.35 -21.11 0.5a0.17 0.17 0 0 0 -0.14 0.2 0.17 0.17 0 0 0 0.14 0.14c4.89 0.35 14.83 -0.18 21.18 -0.4zm3.85 -2.29c0.23 0 0.3 -0.4 0 -0.43 -2.24 -0.27 -24.33 0.09 -25.87 0.43 -0.15 0 -0.14 0.3 0 0.3 5.67 -0.01 19.26 -0.4 25.87 -0.3zm-43.47 71.43v-0.01zm0.42 0.17a19.64 19.64 0 0 0 1.76 -4.51 3.29 3.29 0 0 0 -0.6 -3.2 7.78 7.78 0 0 0 0.55 -2.87c-0.2 -1.63 -1.93 -1.53 -2.86 -0.28 -3.75 5 -7.89 13 -7.77 19.15 -0.07 0.29 0.08 0.62 0.34 0.38a37.93 37.93 0 0 0 9.56 -15.8c1.25 1.86 -0.68 5.07 -1.4 6.95 -0.09 0.25 0.29 0.4 0.42 0.18zm-8.54 7.88a23 23 0 0 1 0.46 -3.3l1.54 1.11c-0.65 0.72 -1.32 1.47 -2 2.19zm9.29 -16a5.1 5.1 0 0 0 -2.36 -1.11 9.16 9.16 0 0 1 1.2 -1.7c0.45 -0.42 1.31 -0.59 1.57 0.12a5.48 5.48 0 0 1 -0.41 2.67zM60 53.25c-0.44 0.18 -3 4 -3.47 4.67a12.26 12.26 0 0 0 -2 -2.09 0.19 0.19 0 0 0 -0.24 0.07 0.17 0.17 0 0 0 0 0.12 15 15 0 0 0 2 2.59 0.29 0.29 0 0 0 0.43 0v-0.05L60 54.08c0.46 -0.65 0.33 -1 0 -0.83zM120 48c0.21 0 0.25 -0.4 0 -0.43a146.11 146.11 0 0 0 -18.72 0.27c-0.21 0 -0.19 0.37 0 0.36 4.72 -0.04 13.57 0.11 18.72 -0.2z" stroke-width="1"></path><path d="M60 59.31c0.4 -0.16 -0.4 -3.14 -0.51 -3.61a0.16 0.16 0 0 0 -0.32 0.05c0.12 1.07 0.24 2.15 0.44 3.2 -1.67 0.13 -3.18 0.12 -4.81 0.19 -0.3 -1.3 -0.56 -3 -1 -4.29a22.56 22.56 0 0 0 3.78 0c0.83 0 0.77 -0.52 0.06 -0.51 -0.42 0 -4 -0.07 -4 0.36 -0.47 0 0.52 4.19 0.58 4.47a0.24 0.24 0 0 0 0.21 0.19c0.12 0.52 5.38 0.44 5.57 -0.05zm60.56 -3.51a0.18 0.18 0 0 0 -0.17 -0.14c-6.06 -0.16 -12.54 0.13 -18.68 0.12 -0.18 0 -0.19 0.3 0 0.32 5.38 0.36 13.7 0.58 18.72 -0.08a0.19 0.19 0 0 0 0.13 -0.22zm-65.99 -3.72a28.79 28.79 0 0 0 4.2 -0.19c0.87 0.22 -0.46 -5.24 -0.62 -5.49a0.24 0.24 0 0 0 -0.25 -0.14c-0.9 0 -5.08 0 -5.67 0.13 -0.72 -0.58 0.33 4.35 0.48 4.94 0.29 0.99 0.93 0.75 1.86 0.75zm-2.22 -5.35a26 26 0 0 0 5.56 0.08l0.64 4.62 -5.24 0.27c0.04 -0.34 -0.84 -4.31 -0.96 -4.97zm63.47 3.37a0.2 0.2 0 0 0 0 -0.4c-1.24 -0.25 -11.9 0.13 -14.11 0.32 -0.17 0 -0.17 0.29 0 0.3 1.2 0.05 12.92 0.08 14.11 -0.22zM31.85 81.82c0.19 0 1.6 -0.8 1.93 0.5 0.46 1.78 2.26 0.71 2.55 -0.65 0.37 -1.68 -1.23 -3 -3.12 -3 -3.84 0 -2.96 3.33 -1.36 3.15zm1.36 -2.76c2.16 0.07 3.49 2.11 2.18 3.31 -1.12 1 -1 -0.44 -1.54 -1 -1.08 -1 -1.94 0.21 -2.55 -0.3 -1.25 -1 1.14 -2.07 1.91 -2.01zm23.42 -16.29c-1.57 0 -1.63 -0.26 -1.43 1.27 0.06 0.43 0.37 3.47 0.89 3.5 0.11 0.48 4.6 0.31 5.17 0.14 0.77 0 0 -2.37 0 -2.64 -0.66 -3.48 0.16 -2.4 -4.63 -2.27zm-0.29 4.54c-0.25 -1.26 -0.44 -2.93 -0.8 -4.13a18.38 18.38 0 0 0 4.91 -0.18 25.17 25.17 0 0 0 0.65 4.13c-1.56 0.07 -3.18 0.15 -4.76 0.18zm65.79 -27.19c-1.84 -0.17 -28.34 0 -31.7 0.26a0.17 0.17 0 0 0 -0.14 0.19 0.18 0.18 0 0 0 0.14 0.14c2.85 0.15 29.66 0.08 31.7 -0.15a0.22 0.22 0 0 0 0 -0.44zM77 47.47c0.23 -0.05 0.15 -0.36 -0.05 -0.4l-15.19 0.38a0.16 0.16 0 0 0 -0.14 0.19 0.17 0.17 0 0 0 0.14 0.14c3.81 0.28 11.93 0.36 15.24 -0.31zm60.23 28.11c0.07 0.76 0.83 8.34 1.11 8.89 2 3.9 9.36 4 9.52 -1.77 0.28 -2.4 1.25 -9.29 0.87 -11 0.11 -0.56 0.69 -3 0.8 -4.29 0 -0.21 0.4 -5.92 -0.4 -5.05a31.8 31.8 0 0 0 -2.83 4.51c-0.14 0.61 -0.28 1.21 -0.43 1.81a6.41 6.41 0 0 0 -1.37 -0.35c0 -0.41 -0.3 -2.41 -0.44 -3.21 -0.69 -1.34 -1.4 -2.54 -2 -3.93 -0.85 -2.09 -0.87 -2.13 -1.11 0.17a21 21 0 0 0 0 7.08c-4.53 0.94 -4.06 3.61 -3.73 7.14zm10.94 -11a1.19 1.19 0 0 0 0.93 0.33v2.52a3.15 3.15 0 0 1 -2.35 -0.74c0.49 -0.69 1 -1.4 1.42 -2.11zm-1.44 2.63a3.84 3.84 0 0 0 2.27 0.71c-0.33 1.86 -0.66 3.71 -0.92 5.58 -0.34 1.22 -2 1.66 -3.08 1.81 0.66 -2.64 1.16 -5.48 1.73 -8.13zm-2 7.38a6.31 6.31 0 0 0 -0.1 0.76l-2.44 0.06 -1 -9.42a2.9 2.9 0 0 0 2.66 -0.52s0.65 8.97 0.88 9.09zm-3.42 -11.8a1.16 1.16 0 0 0 0.91 -0.14l1.37 2.46a2.9 2.9 0 0 1 -2.54 0.46 12.79 12.79 0 0 1 0.26 -2.81zm6.93 11.52c-0.18 2.52 -0.5 7.84 -1.15 10.22 -1.15 3.09 -6.16 3.14 -8.37 0 -0.42 -3.47 -0.84 -7 -1.25 -10.42 1.87 2.71 9.14 2.38 10.77 0.17z" stroke-width="1"></path><path d="M13.81 85.33a22.83 22.83 0 0 0 4.79 1.85c-3.19 4.39 5.94 10.65 14.29 7.31 3.83 -1.53 7.66 -6.39 3.91 -9.76 4 -3.23 5.41 -7.89 5.24 -13 -0.26 -7.88 -3.74 -13.68 -11.71 -15.55a19.55 19.55 0 0 0 -11.78 0.91L17 54.41c0.49 -0.26 1 -0.51 1.5 -0.73 1.32 -0.45 0.92 -1.42 0.14 -1.13C3.32 58.14 -0.22 78.29 13.81 85.33zm4.91 1.15c-0.28 -1 0.47 -2 0.12 -3.09 -0.8 -2.59 -4.15 -1.09 -5 -2.84 -0.93 -1.91 1.55 -2.24 2.05 -3.61a1.43 1.43 0 0 0 -0.26 -1.43c-1.44 -1.8 -4.77 0.1 -3.82 -4.1 0.72 -3.17 3.78 -4.67 6 -3.27s3.55 2.34 6.36 0.7c4.68 -2.75 4.1 3 2.67 4.74 -0.76 0.94 -2.14 0.89 -3.2 1.29 -3.46 1.3 -3.44 3.63 -0.7 4.2 1.06 0.22 2.42 0.12 3.25 0.92 2.25 2.19 -2.4 6.87 -3.87 7.64 -0.79 -0.16 -3.2 -0.63 -3.6 -1.15zm12.69 -29.42c5.89 1.83 9 6.09 9.84 12.18a21.21 21.21 0 0 1 -0.29 7.9c-0.24 0.33 -3.62 1.26 -4.71 -0.14a4.47 4.47 0 0 1 -0.68 -4c0.65 -1.68 2.86 -3.16 2.18 -4.88 -0.94 -2.38 -3.69 0.87 -4.85 0.2 -1.74 -1 1.52 -2.92 -2.2 -3.61 -1.37 -0.25 -2.49 0.31 -3.5 -1.2 -2.31 -3.46 3.7 -6.46 4.21 -6.48zM20 61.49a0.35 0.35 0 0 0 0.42 0.14 0.36 0.36 0 0 0 0.2 -0.46l-1.82 -3.55a19 19 0 0 1 11.67 -0.8c-5 1.65 -5.59 7.29 -2 8.26 0.76 0.21 4.16 -0.09 3.57 1.36A1.82 1.82 0 0 0 33.11 69c1.4 0.25 2.9 -1.86 3.93 -1 1.8 1.5 -2.9 3.82 -2.1 7.16 0.6 2.56 1.66 3.37 4.26 3a4 4 0 0 0 1.62 -0.5c-2.15 7.53 -10.19 11 -17.54 10.09 1.48 -1.36 3.78 -4.06 4 -6 0.34 -3.44 -3.61 -2.75 -5.06 -3.51 -2 -1 0.86 -2.74 2.69 -3.14a5.8 5.8 0 0 0 1.72 -0.57c3 -1.84 2.17 -9.24 -2.18 -6.51 -3.72 2.33 -4.87 0.35 -6.6 -0.54 -2.77 -1.41 -6.57 0.81 -6.76 5 -0.11 2.85 2.24 2.24 3.61 3a1.11 1.11 0 0 1 0.7 1.25c-0.32 1 -1.77 1.2 -2.17 2.41a2.21 2.21 0 0 0 0.93 2.58c1.31 0.76 3.63 0.1 4.18 1.91 0.27 0.88 -0.26 1.78 -0.2 2.67a14.64 14.64 0 0 1 -9.58 -12c-0.9 -6.8 3.25 -13.41 9.35 -16.3 0.63 1.16 1.42 2.36 2.09 3.49zm-9 -2.67a21.26 21.26 0 0 1 5.13 -3.91 28.33 28.33 0 0 1 1.53 2.65A16.81 16.81 0 0 0 8 74.31a14.25 14.25 0 0 0 5.75 10C4.19 79 3.79 66.48 11 58.82zm106.73 7.05c-0.86 -0.19 -13.72 -0.25 -15.54 0a0.17 0.17 0 0 0 0 0.34c0.69 0.1 14.13 0.33 15.54 0a0.21 0.21 0 0 0 0 -0.41zm4.27 -23c-9.65 0.11 -22.12 -0.22 -30.82 0 -0.24 0 -0.22 0.34 0 0.36 3.65 0.4 27.88 0.37 30.82 0a0.21 0.21 0 0 0 0.19 -0.24 0.2 0.2 0 0 0 -0.19 -0.12zm-1.07 20.83c-5.85 -0.13 -13.16 0.23 -19.39 0.07 -0.18 0 -0.22 0.26 0 0.28 3.83 0.38 15.82 0.76 19.43 0.06 0.19 -0.05 0.21 -0.41 -0.04 -0.41z" stroke-width="1"></path></g></svg>