<svg xmlns="http://www.w3.org/2000/svg" viewBox="0 0 24 24" id="Controls-Brightness-Decrease--Streamline-Freehand.svg" height="24" width="24"><desc>Controls Brightness Decrease Streamline Icon: https://streamlinehq.com</desc><g><path d="M16.3585 9.2997C15.5151 7.9568 14.1346 7.0417 12.5692 6.788C10.9221 6.5934 9.2869 7.2366 8.2137 8.5012C6.9276 9.9726 6.5641 12.0362 7.27 13.8585C8.0685 15.6005 9.8258 16.7017 11.7417 16.6605C12.1377 16.6973 12.5362 16.6973 12.9322 16.6605C13.3346 16.6203 13.7299 16.5276 14.1082 16.3847C14.5291 16.1768 14.5671 15.5913 14.1766 15.3307C14.0456 15.2433 13.8858 15.21 13.7307 15.2377C13.4309 15.3117 13.1245 15.3554 12.816 15.3684C12.4973 15.3967 12.1766 15.3967 11.8578 15.3684C10.5702 15.2952 9.4399 14.487 8.9542 13.2923C8.6043 12.0928 8.9322 10.7979 9.8107 9.9095C10.4578 9.1438 11.4413 8.7471 12.4386 8.8496C13.5131 8.9387 14.5044 9.4632 15.1825 10.3015C15.4798 10.6503 15.6933 11.0625 15.8068 11.5065C15.9143 11.9845 15.9143 12.4804 15.8068 12.9583C15.7517 13.191 15.6789 13.4191 15.589 13.6407C15.4983 13.8546 15.3865 14.0589 15.2551 14.2505C15.0819 14.4889 15.1267 14.8213 15.3568 15.0054C15.5931 15.1867 15.9317 15.1411 16.1117 14.9038C16.3091 14.667 16.4796 14.4089 16.6199 14.1343C16.7669 13.8656 16.8884 13.5837 16.9828 13.2923C17.1972 12.6475 17.2666 11.9634 17.1861 11.2887C17.0811 10.5669 16.7966 9.883 16.3585 9.2997Z" fill="#100259" fill-rule="evenodd" stroke-width="1"></path><path d="M11.4223 4.2183C11.4222 4.5528 11.6976 4.8217 12.032 4.8135C12.3688 4.8135 12.6418 4.5405 12.6418 4.2038C12.7434 3.8263 12.8886 3.4633 12.9903 3.0132C13.0045 2.8393 13.0045 2.6645 12.9903 2.4906C13.0043 2.3263 13.0043 2.1612 12.9903 1.997C12.8751 1.5982 12.7394 1.2057 12.5837 0.821C12.5929 0.5241 12.3711 0.2706 12.0756 0.2402C11.7816 0.2316 11.5325 0.4551 11.5094 0.7484C11.3089 1.1377 11.1483 1.5463 11.0303 1.9679C11.0089 2.1415 11.0089 2.317 11.0303 2.4906C11.0162 2.6645 11.0162 2.8393 11.0303 3.0132C11.1609 3.4633 11.3061 3.8408 11.4223 4.2183Z" fill="#100259" fill-rule="evenodd" stroke-width="1"></path><path d="M23.2547 11.521C22.8666 11.318 22.4577 11.1573 22.0352 11.0419C21.8617 11.0197 21.6861 11.0197 21.5125 11.0419C21.3386 11.0276 21.1638 11.0276 20.9899 11.0419C20.5398 11.1435 20.1769 11.2887 19.7849 11.4049C19.3211 11.4771 19.1093 12.0243 19.4038 12.3899C19.499 12.5081 19.6349 12.5865 19.7849 12.6099C20.1769 12.726 20.5398 12.8712 20.9899 12.9728C21.159 12.9871 21.3289 12.9871 21.498 12.9728C21.6661 13.0027 21.8381 13.0027 22.0062 12.9728C22.4058 12.8662 22.7985 12.7353 23.1822 12.5808C23.5957 12.6088 23.8844 12.1786 23.7018 11.8065C23.6171 11.6338 23.4467 11.5195 23.2547 11.5065Z" fill="#100259" fill-rule="evenodd" stroke-width="1"></path><path d="M12.5983 19.7529C12.6147 19.4561 12.387 19.2023 12.0901 19.1867C11.7958 19.1617 11.5393 19.3854 11.5239 19.6803C11.321 20.0736 11.1604 20.4873 11.0448 20.9144C11.0218 21.0879 11.0218 21.2636 11.0448 21.437C11.0299 21.6061 11.0299 21.7761 11.0448 21.9452C11.1464 22.3953 11.2916 22.7727 11.4078 23.1502C11.4078 23.6196 11.9159 23.913 12.3224 23.6783C12.5111 23.5694 12.6273 23.3681 12.6273 23.1502C12.7289 22.7582 12.8741 22.3952 12.9757 21.9452C12.9899 21.7761 12.9899 21.6061 12.9757 21.437C12.9906 21.268 12.9906 21.098 12.9757 20.9289C12.9031 20.4498 12.6999 20.1159 12.5983 19.7529Z" fill="#100259" fill-rule="evenodd" stroke-width="1"></path><path d="M4.8164 12.0001C4.8415 11.7031 4.6199 11.4425 4.3228 11.4194C3.9335 11.2189 3.5249 11.0583 3.1033 10.9403C2.9297 10.9189 2.7542 10.9189 2.5806 10.9403C2.4067 10.926 2.2319 10.926 2.0579 10.9403C1.6079 11.0419 1.2449 11.1871 0.8529 11.3032C0.5161 11.3032 0.2431 11.5762 0.2431 11.913C0.2431 12.2498 0.5161 12.5228 0.8529 12.5228C1.2304 12.6244 1.6079 12.7696 2.0579 12.8712L2.5661 12.9438C2.7351 12.9587 2.9052 12.9587 3.0742 12.9438C3.5533 12.8422 3.8872 12.6389 4.2502 12.5373C4.5582 12.554 4.8169 12.3085 4.8164 12.0001Z" fill="#100259" fill-rule="evenodd" stroke-width="1"></path><path d="M4.0179 5.9169C4.1184 6.0607 4.2353 6.1923 4.3663 6.3089C4.4995 6.4268 4.6456 6.5291 4.8019 6.6138C5.1939 6.8461 5.5714 6.9913 5.9198 7.1655C6.1651 7.3942 6.5456 7.3942 6.7909 7.1655C7.0252 6.9281 7.0252 6.5464 6.7909 6.3089C6.5876 5.975 6.4134 5.6121 6.1376 5.2346C6.0247 5.0605 5.8985 4.8955 5.7601 4.7409C5.6395 4.627 5.5083 4.5249 5.3681 4.436C4.9326 4.1892 4.5551 4.1021 4.2212 3.9424C3.9138 3.6463 3.4011 3.7939 3.2983 4.2081C3.2506 4.4004 3.309 4.6035 3.4517 4.7409C3.598 5.152 3.7878 5.5462 4.0179 5.9169Z" fill="#100259" fill-rule="evenodd" stroke-width="1"></path><path d="M17.8104 6.7154C18.1823 6.5212 18.5411 6.303 18.8847 6.0621C19.0197 5.967 19.146 5.8601 19.2622 5.7427C19.3764 5.6171 19.4785 5.481 19.5671 5.3362C19.8139 4.9152 19.901 4.5377 20.0752 4.2038C20.377 3.8908 20.2268 3.3686 19.8049 3.2637C19.6091 3.2151 19.4022 3.2745 19.2622 3.4198C18.8537 3.5722 18.4601 3.7618 18.0862 3.986C17.9407 4.0899 17.8047 4.2065 17.6797 4.3344C17.5653 4.4651 17.4632 4.606 17.3748 4.7555C17.1425 5.1475 16.9973 5.5249 16.8231 5.8879C16.4667 6.1934 16.5747 6.7701 17.0175 6.926C17.2691 7.0146 17.5492 6.9293 17.7087 6.7154Z" fill="#100259" fill-rule="evenodd" stroke-width="1"></path><path d="M20.0171 18.0398C19.9177 17.8995 19.8059 17.7683 19.6832 17.6478C19.5579 17.529 19.4218 17.4221 19.2767 17.3284C18.8557 17.0815 18.4782 17.009 18.1298 16.8347C17.8121 16.5701 17.327 16.7486 17.2566 17.156C17.231 17.3041 17.2686 17.4561 17.3603 17.5752C17.5147 17.9899 17.7092 18.3887 17.941 18.7657C18.0447 18.9069 18.1614 19.0381 18.2895 19.1577C18.4237 19.2674 18.5643 19.3693 18.7105 19.4626C19.1025 19.6949 19.48 19.8255 19.8429 19.9998C20.077 20.2422 20.4655 20.2422 20.6995 19.9998C20.9356 19.7574 20.9356 19.3711 20.6995 19.1287C20.4527 18.7657 20.2785 18.4027 20.0171 18.0398Z" fill="#100259" fill-rule="evenodd" stroke-width="1"></path><path d="M6.3844 17.2558C5.9708 17.396 5.5759 17.5862 5.2084 17.822C5.0577 17.9134 4.9248 18.0314 4.8164 18.1704C4.6941 18.298 4.5869 18.4393 4.497 18.5915C4.2647 18.9835 4.1195 19.3609 3.9453 19.7094C3.7028 19.9434 3.7028 20.3319 3.9453 20.5659C4.1877 20.802 4.574 20.802 4.8164 20.5659C5.1503 20.3627 5.5133 20.1885 5.8908 19.9271C6.0285 19.8244 6.1594 19.7128 6.2828 19.5932C6.4001 19.4756 6.5026 19.3439 6.5877 19.2012C6.7799 18.8295 6.9496 18.4465 7.0958 18.0543C7.3107 17.8485 7.3107 17.5051 7.0958 17.2993C6.9038 17.1069 6.5984 17.0882 6.3844 17.2557Z" fill="#100259" fill-rule="evenodd" stroke-width="1"></path></g></svg>