<svg xmlns="http://www.w3.org/2000/svg" viewBox="0 0 24 24" id="Navigation-Menu-1--Streamline-Ultimate.svg" height="24" width="24"><desc>Navigation Menu 1 Streamline Icon: https://streamlinehq.com</desc><g><path d="M2.2 0.24H21.8S23.76 0.24 23.76 2.2V3.5067S23.76 5.4667 21.8 5.4667H2.2S0.24 5.4667 0.24 3.5067V2.2S0.24 0.24 2.2 0.24" fill="#100259" stroke-width="1"></path><path d="M2.2 9.3867H21.8S23.76 9.3867 23.76 11.3467V12.6533S23.76 14.6133 21.8 14.6133H2.2S0.24 14.6133 0.24 12.6533V11.3467S0.24 9.3867 2.2 9.3867" fill="#100259" stroke-width="1"></path><path d="M2.2 18.5333H21.8S23.76 18.5333 23.76 20.4933V21.8S23.76 23.76 21.8 23.76H2.2S0.24 23.76 0.24 21.8V20.4933S0.24 18.5333 2.2 18.5333" fill="#100259" stroke-width="1"></path></g></svg>